<?xml version="1.0" standalone="no"?>
<!DOCTYPE svg PUBLIC "-//W3C//DTD SVG 20010904//EN"
 "http://www.w3.org/TR/2001/REC-SVG-20010904/DTD/svg10.dtd">
<svg version="1.0" xmlns="http://www.w3.org/2000/svg"
 width="626.000000pt" height="485.000000pt" viewBox="0 0 626.000000 485.000000"
 preserveAspectRatio="xMidYMid meet">

<g transform="translate(0.000000,485.000000) scale(0.100000,-0.100000)"
fill="#000000" stroke="none">
<path d="M1712 3133 c-29 -4 -33 -8 -30 -31 3 -28 8 -29 68 -18 14 2 30 5 36
5 6 1 9 12 6 26 -5 26 -8 27 -80 18z"/>
<path d="M1369 2993 c-13 -16 -12 -17 4 -4 9 7 17 15 17 17 0 8 -8 3 -21 -13z"/>
<path d="M1453 2995 c0 -8 4 -12 9 -9 5 3 6 10 3 15 -9 13 -12 11 -12 -6z"/>
<path d="M2856 2670 c-16 -5 -48 -27 -71 -50 -40 -39 -43 -40 -137 -49 -60 -6
-110 -17 -134 -29 -56 -29 -190 -170 -198 -209 -9 -38 23 -177 57 -254 19 -42
99 -171 123 -198 2 -3 11 4 19 15 15 20 12 40 -12 89 -25 50 -32 84 -23 114 9
34 49 83 62 75 4 -3 8 0 8 5 0 14 94 61 155 77 58 16 153 18 189 5 39 -15 119
-97 110 -113 -4 -7 -4 -10 1 -6 5 5 20 -9 34 -30 l25 -37 7 32 c10 51 28 66
67 59 l35 -5 -7 68 c-8 87 -49 252 -77 305 -53 103 -152 161 -233 136z m115
-26 c52 -26 130 -126 129 -166 -1 -7 -10 4 -21 25 -31 58 -93 115 -134 123
-26 5 -54 -1 -107 -20 -60 -23 -69 -24 -57 -9 29 37 41 46 77 59 39 13 69 10
113 -12z m-2 -120 l26 -28 -27 23 c-46 40 -101 39 -180 -3 -37 -20 -75 -36
-85 -35 -12 0 -10 3 7 8 14 5 52 23 85 40 76 41 132 39 174 -5z m-464 -25
c-22 -22 -53 -47 -68 -55 -27 -15 -28 -15 -17 6 11 21 98 89 115 90 5 0 -9
-18 -30 -41z"/>
<path d="M5445 2281 c-3 -5 -2 -12 3 -15 5 -3 9 1 9 9 0 17 -3 19 -12 6z"/>
<path d="M2895 2241 c-6 -11 13 -26 22 -17 4 3 1 6 -6 6 -7 0 -9 5 -6 10 3 6
4 10 1 10 -3 0 -7 -4 -11 -9z"/>
<path d="M4208 1962 l-358 -2 0 -65 0 -65 475 0 476 0 -3 68 -3 67 -115 0
c-63 0 -276 -1 -472 -3z"/>
<path d="M5290 1690 c-9 -6 -10 -10 -3 -10 6 0 15 5 18 10 8 12 4 12 -15 0z"/>
<path d="M1107 1644 c-4 -4 -7 -16 -7 -26 0 -14 8 -18 40 -18 33 0 40 3 40 20
0 11 -6 20 -12 20 -7 0 -22 3 -33 6 -11 3 -24 2 -28 -2z"/>
<path d="M4000 1610 c0 -7 127 -10 380 -10 414 0 431 -2 444 -55 8 -32 -19
-81 -48 -89 -12 -3 -49 -6 -83 -6 -53 0 -63 3 -64 18 0 14 -2 14 -9 -3 -12
-28 -12 -37 0 -30 7 4 9 -3 5 -22 -5 -25 -4 -26 4 -6 10 22 15 23 124 22 143
-1 182 14 192 72 8 44 -1 78 -24 97 -9 8 -10 10 -2 6 9 -4 12 -3 7 4 -9 15
-926 17 -926 2z"/>
<path d="M1326 1571 c-17 -19 -17 -21 -2 -27 22 -8 28 -1 24 26 l-3 22 -19
-21z"/>
<path d="M975 1540 c-3 -6 1 -13 10 -16 13 -6 14 -8 3 -15 -9 -6 -9 -9 -1 -9
19 0 26 20 9 26 -9 3 -13 10 -10 15 3 5 3 9 0 9 -3 0 -8 -5 -11 -10z"/>
<path d="M4595 1520 c-3 -5 3 -10 14 -10 12 0 21 5 21 10 0 6 -6 10 -14 10 -8
0 -18 -4 -21 -10z"/>
<path d="M2668 1480 c-17 -16 -35 -30 -41 -30 -5 0 -7 -7 -4 -14 4 -10 1 -13
-7 -10 -23 9 -36 -21 -42 -97 l-7 -74 37 -17 c20 -10 39 -17 42 -17 4 0 11 -5
15 -13 6 -9 9 -9 9 -1 0 6 -3 14 -7 16 -5 3 -6 51 -3 106 4 87 3 101 -10 96
-13 -4 -13 -4 0 8 19 15 63 77 55 77 -3 0 -19 -13 -37 -30z"/>
<path d="M4298 1453 c-187 -2 -298 -7 -298 -13 0 -6 110 -10 300 -10 260 0
300 2 300 15 0 8 -1 14 -2 13 -2 -2 -137 -4 -300 -5z"/>
<path d="M1030 1321 c0 -5 9 -7 20 -4 11 3 20 7 20 9 0 2 -9 4 -20 4 -11 0
-20 -4 -20 -9z"/>
<path d="M3997 1285 c-26 -19 -37 -54 -37 -120 0 -60 3 -69 29 -96 l29 -29
401 0 c394 0 401 0 401 20 0 20 -7 20 -405 20 -461 0 -425 -8 -425 92 0 95
-31 89 428 88 389 0 402 0 402 19 0 18 -13 19 -404 18 -260 -1 -410 -5 -419
-12z"/>
<path d="M1000 1167 c0 -41 -3 -129 -7 -195 l-6 -122 133 0 133 0 -6 128 c-4
70 -7 157 -7 195 l0 67 -120 0 -120 0 0 -73z"/>
<path d="M2441 896 c-14 -15 -19 -26 -12 -31 6 -3 11 -4 11 -1 0 3 10 2 23 -3
15 -6 29 -5 41 5 11 7 24 11 30 7 6 -3 0 6 -13 20 -30 33 -51 34 -80 3z"/>
</g>
</svg>
